<svg width="512" height="392" viewBox="0 0 512 392" fill="none" xmlns="http://www.w3.org/2000/svg">
<path d="M435.253 95.395C430.082 59.037 398.764 30 361 30C349.721 30 338.808 32.549 328.759 37.456C312.001 14.282 284.931 0 256 0C227.069 0 199.999 14.282 183.241 37.456C173.192 32.549 162.279 30 151 30C113.764 30 82.782 58.275 77.084 95.307C32.362 107.992 0 148.627 0 196C0 243.256 32.201 283.803 76.747 296.605C81.918 332.963 113.236 362 151 362C162.279 362 173.192 359.451 183.241 354.544C199.999 377.718 227.069 392 256 392C284.931 392 312.001 377.718 328.759 354.544C338.808 359.451 349.721 362 361 362C398.236 362 429.218 333.725 434.916 296.693C479.638 284.008 512 243.373 512 196C512 148.744 479.799 108.197 435.253 95.395ZM226 271H166C159.936 271 154.457 267.353 152.143 261.742C149.814 256.132 151.103 249.686 155.395 245.394L189.789 211H166C157.709 211 151 204.291 151 196C151 187.709 157.709 181 166 181H226C232.064 181 237.543 184.647 239.857 190.258C242.186 195.868 240.897 202.314 236.605 206.606L202.211 241H226C234.291 241 241 247.709 241 256C241 264.291 234.291 271 226 271ZM346 211H286C279.936 211 274.457 207.353 272.143 201.742C269.814 196.132 271.103 189.686 275.395 185.394L309.789 151H286C277.709 151 271 144.291 271 136C271 127.709 277.709 121 286 121H346C352.064 121 357.543 124.647 359.857 130.258C362.186 135.868 360.897 142.314 356.605 146.606L322.211 181H346C354.291 181 361 187.709 361 196C361 204.291 354.291 211 346 211V211Z" fill="url(#paint0_linear)"/>
<defs>
<linearGradient id="paint0_linear" x1="49" y1="-44" x2="769" y2="496" gradientUnits="userSpaceOnUse">
<stop stop-color="#612D92"/>
<stop offset="1" stop-color="#AE2C6A"/>
</linearGradient>
</defs>
</svg>
